<svg width="37.178223" height="37.278076" viewBox="0 0 37.1782 37.2781" fill="none" xmlns="http://www.w3.org/2000/svg" xmlns:xlink="http://www.w3.org/1999/xlink">
	<desc>
			Created with Pixso.
	</desc>
	<defs/>
	<path id="Vector" d="M17.08 2.29C17.25 2.29 17.43 2.32 17.58 2.38C17.74 2.44 17.89 2.54 18.01 2.66L20.37 5.01C22.79 7.44 24.15 10.72 24.15 14.15C24.15 17.57 22.79 20.86 20.37 23.28L19.19 24.46C14.13 29.51 5.89 29.43 0.85 24.39C0.33 23.87 0.02 23.17 0 22.43C-0.03 21.68 0.23 20.96 0.71 20.4L16.18 2.72C16.3 2.59 16.43 2.49 16.59 2.41C16.74 2.34 16.91 2.3 17.08 2.29ZM17.19 5.37L2.59 22.05C2.53 22.13 2.49 22.24 2.5 22.34C2.5 22.45 2.55 22.55 2.62 22.62C6.7 26.7 13.36 26.75 17.42 22.69L18.6 21.51C19.57 20.55 20.33 19.4 20.86 18.14C21.38 16.87 21.65 15.52 21.65 14.15C21.65 12.78 21.38 11.43 20.86 10.16C20.33 8.9 19.57 7.75 18.6 6.78L17.19 5.37Z" fill="#262522" fill-opacity="1.000000" fill-rule="evenodd"/>
	<path id="Vector" d="M23.45 14.68C25.26 14.45 27.1 14.63 28.83 15.22C30.56 15.81 32.13 16.78 33.42 18.07L34.51 19.16C34.63 19.28 34.72 19.42 34.79 19.58C34.85 19.74 34.88 19.91 34.87 20.08C34.87 20.25 34.83 20.42 34.76 20.57C34.68 20.73 34.58 20.87 34.45 20.98L16.84 36.55C16.29 37.04 15.57 37.29 14.84 37.27C14.11 37.25 13.41 36.95 12.89 36.43C11.51 35.06 10.79 33.67 10.51 32.14C10.24 30.66 10.39 29.13 10.59 27.54C10.6 27.38 10.65 27.22 10.73 27.07C10.81 26.93 10.92 26.8 11.05 26.7C11.18 26.59 11.33 26.52 11.49 26.47C11.65 26.43 11.82 26.42 11.98 26.44C12.15 26.46 12.31 26.51 12.45 26.59C12.6 26.68 12.72 26.79 12.82 26.92C12.92 27.05 13 27.2 13.04 27.36C13.08 27.52 13.09 27.69 13.07 27.86C12.86 29.46 12.77 30.63 12.97 31.68C13.15 32.66 13.6 33.61 14.66 34.66C14.8 34.81 15.03 34.81 15.18 34.68L31.8 19.99L31.65 19.84C30.63 18.82 29.39 18.05 28.02 17.58C26.65 17.12 25.19 16.97 23.76 17.16C23.6 17.19 23.43 17.18 23.27 17.13C23.11 17.09 22.96 17.02 22.82 16.92C22.69 16.82 22.58 16.69 22.5 16.55C22.41 16.4 22.36 16.25 22.34 16.08C22.32 15.92 22.33 15.75 22.38 15.59C22.42 15.43 22.5 15.28 22.6 15.15C22.7 15.02 22.83 14.91 22.98 14.83C23.12 14.75 23.28 14.7 23.45 14.68Z" fill="#262522" fill-opacity="1.000000" fill-rule="evenodd"/>
	<path id="Vector" d="M1.06 22.84C1.3 22.6 1.62 22.47 1.95 22.47C2.28 22.47 2.6 22.6 2.83 22.84L14.4 34.41C14.53 34.52 14.63 34.66 14.69 34.82C14.76 34.97 14.8 35.13 14.8 35.3C14.8 35.47 14.77 35.64 14.71 35.79C14.65 35.95 14.55 36.09 14.44 36.21C14.32 36.33 14.18 36.42 14.02 36.48C13.86 36.55 13.7 36.58 13.53 36.57C13.36 36.57 13.2 36.53 13.04 36.47C12.89 36.4 12.75 36.3 12.64 36.18L1.06 24.6C0.83 24.37 0.7 24.05 0.7 23.72C0.7 23.39 0.83 23.07 1.06 22.84L1.06 22.84ZM25.59 1.07C27.06 0.39 28.7 0.18 30.3 0.46C31.89 0.75 33.36 1.51 34.51 2.66C35.65 3.8 36.42 5.27 36.71 6.87C36.99 8.46 36.78 10.11 36.1 11.58C36.95 12.93 37.31 14.54 37.13 16.13C36.95 17.72 36.23 19.2 35.1 20.34C34.86 20.56 34.55 20.69 34.22 20.69C33.89 20.68 33.58 20.55 33.35 20.32C33.11 20.09 32.98 19.78 32.98 19.45C32.98 19.12 33.1 18.81 33.33 18.57C34.13 17.77 34.61 16.71 34.67 15.58C34.73 14.45 34.37 13.34 33.66 12.46C33.5 12.26 33.41 12.02 33.39 11.76C33.37 11.51 33.43 11.25 33.56 11.03C34.18 10 34.43 8.79 34.28 7.59C34.14 6.39 33.59 5.28 32.74 4.43C31.89 3.58 30.77 3.03 29.58 2.88C28.38 2.73 27.17 2.99 26.14 3.6C25.92 3.73 25.66 3.8 25.41 3.78C25.15 3.76 24.91 3.66 24.71 3.5C23.83 2.8 22.72 2.44 21.59 2.5C20.46 2.56 19.4 3.04 18.6 3.84C18.36 4.06 18.05 4.18 17.72 4.17C17.4 4.17 17.09 4.03 16.86 3.81C16.63 3.58 16.5 3.27 16.5 2.94C16.49 2.62 16.61 2.31 16.83 2.07C17.96 0.94 19.45 0.22 21.04 0.04C22.63 -0.14 24.23 0.22 25.59 1.07Z" fill="#262522" fill-opacity="1.000000" fill-rule="evenodd"/>
	<path id="Vector" d="M31.34 11.79C31.34 11.46 31.21 11.14 30.97 10.91C30.74 10.67 30.42 10.54 30.09 10.54L27.73 10.54C27.4 10.54 27.08 10.67 26.85 10.91C26.61 11.14 26.48 11.46 26.48 11.79C26.48 12.12 26.61 12.44 26.85 12.68C27.08 12.91 27.4 13.04 27.73 13.04L30.09 13.04C30.42 13.04 30.74 12.91 30.97 12.68C31.21 12.44 31.34 12.12 31.34 11.79ZM24.13 7.08C24.13 7.77 24.69 8.33 25.38 8.33L27.73 8.33C28.06 8.33 28.38 8.2 28.62 7.96C28.85 7.73 28.98 7.41 28.98 7.08C28.98 6.75 28.85 6.43 28.62 6.19C28.38 5.96 28.06 5.83 27.73 5.83L25.38 5.83C25.04 5.83 24.73 5.96 24.49 6.19C24.26 6.43 24.13 6.75 24.13 7.08Z" fill="#262522" fill-opacity="1.000000" fill-rule="evenodd"/>
</svg>
