<svg width="37.500000" height="37.500000" viewBox="0 0 37.5 37.5" fill="none" xmlns="http://www.w3.org/2000/svg" xmlns:xlink="http://www.w3.org/1999/xlink">
	<desc>
			Created with Pixso.
	</desc>
	<defs/>
	<path id="Vector" d="M18.75 2.5C9.77 2.5 2.5 9.77 2.5 18.75C2.5 27.72 9.77 35 18.75 35C27.72 35 35 27.72 35 18.75C35 9.77 27.72 2.5 18.75 2.5ZM0 18.75C0 8.39 8.39 0 18.75 0C29.1 0 37.5 8.39 37.5 18.75C37.5 29.1 29.1 37.5 18.75 37.5C8.39 37.5 0 29.1 0 18.75Z" fill="#262522" fill-opacity="1.000000" fill-rule="evenodd"/>
	<path id="Vector" d="M1.66 2.91C1.66 2.58 1.79 2.26 2.03 2.03C2.26 1.79 2.58 1.66 2.91 1.66L11.25 1.66C11.58 1.66 11.89 1.79 12.13 2.03C12.36 2.26 12.5 2.58 12.5 2.91C12.5 3.24 12.36 3.56 12.13 3.8C11.89 4.03 11.58 4.16 11.25 4.16L4.16 4.16L4.16 11.25C4.16 11.58 4.03 11.89 3.8 12.13C3.56 12.36 3.24 12.5 2.91 12.5C2.58 12.5 2.26 12.36 2.03 12.13C1.79 11.89 1.66 11.58 1.66 11.25L1.66 2.91ZM25 2.91C25 2.58 25.13 2.26 25.36 2.03C25.6 1.79 25.91 1.66 26.25 1.66L34.58 1.66C34.91 1.66 35.23 1.79 35.46 2.03C35.7 2.26 35.83 2.58 35.83 2.91L35.83 11.25C35.83 11.58 35.7 11.89 35.46 12.13C35.23 12.36 34.91 12.5 34.58 12.5C34.25 12.5 33.93 12.36 33.69 12.13C33.46 11.89 33.33 11.58 33.33 11.25L33.33 4.16L26.25 4.16C25.91 4.16 25.6 4.03 25.36 3.8C25.13 3.56 25 3.24 25 2.91ZM2.91 25C3.24 25 3.56 25.13 3.8 25.36C4.03 25.6 4.16 25.91 4.16 26.25L4.16 33.33L10.41 33.33C10.74 33.33 11.06 33.46 11.3 33.69C11.53 33.93 11.66 34.25 11.66 34.58C11.66 34.91 11.53 35.23 11.3 35.46C11.06 35.7 10.74 35.83 10.41 35.83L2.91 35.83C2.58 35.83 2.26 35.7 2.03 35.46C1.79 35.23 1.66 34.91 1.66 34.58L1.66 26.25C1.66 25.91 1.79 25.6 2.03 25.36C2.26 25.13 2.58 25 2.91 25ZM34.58 25C34.91 25 35.23 25.13 35.46 25.36C35.7 25.6 35.83 25.91 35.83 26.25L35.83 34.58C35.83 34.91 35.7 35.23 35.46 35.46C35.23 35.7 34.91 35.83 34.58 35.83L26.25 35.83C25.91 35.83 25.6 35.7 25.36 35.46C25.13 35.23 25 34.91 25 34.58C25 34.25 25.13 33.93 25.36 33.69C25.6 33.46 25.91 33.33 26.25 33.33L33.33 33.33L33.33 26.25C33.33 25.91 33.46 25.6 33.69 25.36C33.93 25.13 34.25 25 34.58 25ZM9.97 11.71C10.11 11.41 10.37 11.18 10.69 11.08C11 10.97 11.35 11 11.64 11.15L14.88 12.76C16.03 13.34 17.03 14.19 17.78 15.24L21.75 20.8C22.26 21.51 22.94 22.1 23.73 22.49L26.97 24.11C27.12 24.18 27.25 24.28 27.36 24.4C27.47 24.53 27.56 24.67 27.62 24.83C27.67 24.99 27.69 25.15 27.68 25.32C27.67 25.49 27.63 25.65 27.55 25.8C27.48 25.95 27.37 26.08 27.25 26.19C27.12 26.3 26.97 26.38 26.81 26.43C26.66 26.48 26.49 26.5 26.32 26.49C26.16 26.47 25.99 26.42 25.85 26.34L22.61 24.73C21.46 24.15 20.46 23.3 19.71 22.25L15.75 16.7C15.23 15.98 14.55 15.39 13.76 15L10.53 13.38C10.23 13.23 10 12.97 9.9 12.66C9.79 12.34 9.82 12 9.97 11.71ZM15.86 8.17C15.93 8.02 16.03 7.89 16.16 7.78C16.28 7.68 16.43 7.59 16.58 7.54C16.74 7.49 16.9 7.47 17.07 7.48C17.23 7.49 17.39 7.54 17.54 7.61L20.51 9.1C21.86 9.77 22.99 10.82 23.76 12.11L25.3 14.67C25.83 15.55 26.6 16.27 27.52 16.73L30.5 18.22C30.78 18.37 31 18.63 31.09 18.94C31.19 19.25 31.17 19.58 31.02 19.87C30.88 20.16 30.62 20.39 30.32 20.49C30.01 20.6 29.68 20.59 29.38 20.45L26.41 18.96C25.06 18.29 23.93 17.25 23.16 15.96L21.62 13.39C21.09 12.51 20.32 11.8 19.4 11.34L16.42 9.85C16.27 9.77 16.14 9.67 16.03 9.55C15.93 9.42 15.84 9.28 15.79 9.12C15.74 8.97 15.72 8.8 15.73 8.64C15.74 8.48 15.79 8.32 15.86 8.17L15.86 8.17ZM6.43 17.6C6.58 17.3 6.84 17.08 7.15 16.97C7.47 16.87 7.81 16.89 8.11 17.04L11.09 18.53C12.43 19.2 13.56 20.24 14.33 21.54L15.87 24.1C16.4 24.98 17.17 25.7 18.09 26.16L21.07 27.65C21.22 27.71 21.36 27.81 21.48 27.94C21.59 28.06 21.68 28.21 21.73 28.37C21.79 28.52 21.81 28.69 21.8 28.86C21.79 29.03 21.75 29.19 21.67 29.34C21.6 29.49 21.49 29.62 21.36 29.73C21.24 29.84 21.09 29.92 20.93 29.97C20.77 30.03 20.6 30.04 20.43 30.03C20.26 30.01 20.1 29.96 19.96 29.88L16.98 28.39C15.63 27.72 14.5 26.67 13.73 25.38L12.19 22.82C11.66 21.94 10.89 21.22 9.97 20.76L6.99 19.27C6.69 19.12 6.47 18.87 6.36 18.55C6.26 18.24 6.28 17.89 6.43 17.6Z" fill="#262522" fill-opacity="1.000000" fill-rule="evenodd"/>
</svg>
