<svg width="29.166626" height="37.500000" viewBox="0 0 29.1666 37.5" fill="none" xmlns="http://www.w3.org/2000/svg" xmlns:xlink="http://www.w3.org/1999/xlink">
	<desc>
			Created with Pixso.
	</desc>
	<defs/>
	<path id="Vector" d="M0 33.75C0 32.75 0.39 31.8 1.09 31.09C1.8 30.39 2.75 30 3.75 30L25.41 30C26.41 30 27.36 30.39 28.06 31.09C28.77 31.8 29.16 32.75 29.16 33.75C29.16 34.74 28.77 35.69 28.06 36.4C27.36 37.1 26.41 37.5 25.41 37.5L3.75 37.5C2.75 37.5 1.8 37.1 1.09 36.4C0.39 35.69 0 34.74 0 33.75ZM3.75 32.5C3.41 32.5 3.1 32.63 2.86 32.86C2.63 33.1 2.5 33.41 2.5 33.75C2.5 34.08 2.63 34.39 2.86 34.63C3.1 34.86 3.41 35 3.75 35L25.41 35C25.74 35 26.06 34.86 26.3 34.63C26.53 34.39 26.66 34.08 26.66 33.75C26.66 33.41 26.53 33.1 26.3 32.86C26.06 32.63 25.74 32.5 25.41 32.5L3.75 32.5Z" fill="#262522" fill-opacity="1.000000" fill-rule="evenodd"/>
	<path id="Vector" d="M0 28.75C0 27.75 0.39 26.8 1.09 26.09C1.8 25.39 2.75 25 3.75 25L25.41 25C26.41 25 27.36 25.39 28.06 26.09C28.77 26.8 29.16 27.75 29.16 28.75C29.16 29.74 28.77 30.69 28.06 31.4C27.36 32.1 26.41 32.5 25.41 32.5L3.75 32.5C2.75 32.5 1.8 32.1 1.09 31.4C0.39 30.69 0 29.74 0 28.75ZM3.75 27.5C3.41 27.5 3.1 27.63 2.86 27.86C2.63 28.1 2.5 28.41 2.5 28.75C2.5 29.08 2.63 29.39 2.86 29.63C3.1 29.86 3.41 30 3.75 30L25.41 30C25.74 30 26.06 29.86 26.3 29.63C26.53 29.39 26.66 29.08 26.66 28.75C26.66 28.41 26.53 28.1 26.3 27.86C26.06 27.63 25.74 27.5 25.41 27.5L3.75 27.5Z" fill="#262522" fill-opacity="1.000000" fill-rule="evenodd"/>
	<path id="Vector" d="M0 23.75C0 22.75 0.39 21.8 1.09 21.09C1.8 20.39 2.75 20 3.75 20L25.41 20C26.41 20 27.36 20.39 28.06 21.09C28.77 21.8 29.16 22.75 29.16 23.75C29.16 24.74 28.77 25.69 28.06 26.4C27.36 27.1 26.41 27.5 25.41 27.5L3.75 27.5C2.75 27.5 1.8 27.1 1.09 26.4C0.39 25.69 0 24.74 0 23.75ZM3.75 22.5C3.41 22.5 3.1 22.63 2.86 22.86C2.63 23.1 2.5 23.41 2.5 23.75C2.5 24.08 2.63 24.39 2.86 24.63C3.1 24.86 3.41 25 3.75 25L25.41 25C25.74 25 26.06 24.86 26.3 24.63C26.53 24.39 26.66 24.08 26.66 23.75C26.66 23.41 26.53 23.1 26.3 22.86C26.06 22.63 25.74 22.5 25.41 22.5L3.75 22.5Z" fill="#262522" fill-opacity="1.000000" fill-rule="evenodd"/>
	<path id="Vector" d="M3.75 17.5C3.41 17.5 3.1 17.63 2.86 17.86C2.63 18.1 2.5 18.41 2.5 18.75C2.5 19.08 2.63 19.39 2.86 19.63C3.1 19.86 3.41 20 3.75 20L25.41 20C25.74 20 26.06 19.86 26.3 19.63C26.53 19.39 26.66 19.08 26.66 18.75C26.66 18.41 26.53 18.1 26.3 17.86C26.06 17.63 25.74 17.5 25.41 17.5L17.08 17.5C16.75 17.5 16.43 17.36 16.19 17.13C15.96 16.89 15.83 16.58 15.83 16.25C15.83 15.91 15.96 15.6 16.19 15.36C16.43 15.13 16.75 15 17.08 15L25.41 15C26.41 15 27.36 15.39 28.06 16.09C28.77 16.8 29.16 17.75 29.16 18.75C29.16 19.74 28.77 20.69 28.06 21.4C27.36 22.1 26.41 22.5 25.41 22.5L3.75 22.5C2.75 22.5 1.8 22.1 1.09 21.4C0.39 20.69 0 19.74 0 18.75C0 17.75 0.39 16.8 1.09 16.09C1.8 15.39 2.75 15 3.75 15L12.08 15C12.41 15 12.73 15.13 12.96 15.36C13.2 15.6 13.33 15.91 13.33 16.25C13.33 16.58 13.2 16.89 12.96 17.13C12.73 17.36 12.41 17.5 12.08 17.5L3.75 17.5Z" fill="#262522" fill-opacity="1.000000" fill-rule="evenodd"/>
	<path id="Vector" d="M3.75 12.5C3.41 12.5 3.1 12.63 2.86 12.86C2.63 13.1 2.5 13.41 2.5 13.75C2.5 14.08 2.63 14.39 2.86 14.63C3.1 14.86 3.41 15 3.75 15L12.08 15C12.41 15 12.73 15.13 12.96 15.36C13.2 15.6 13.33 15.91 13.33 16.25C13.33 16.58 13.2 16.89 12.96 17.13C12.73 17.36 12.41 17.5 12.08 17.5L3.75 17.5C2.75 17.5 1.8 17.1 1.09 16.4C0.39 15.69 0 14.74 0 13.75C0 12.75 0.39 11.8 1.09 11.09C1.8 10.39 2.75 10 3.75 10L12.08 10C12.41 10 12.73 10.13 12.96 10.36C13.2 10.6 13.33 10.91 13.33 11.25C13.33 11.58 13.2 11.89 12.96 12.13C12.73 12.36 12.41 12.5 12.08 12.5L3.75 12.5ZM15.83 11.25C15.83 10.91 15.96 10.6 16.19 10.36C16.43 10.13 16.75 10 17.08 10L25.41 10C26.41 10 27.36 10.39 28.06 11.09C28.77 11.8 29.16 12.75 29.16 13.75C29.16 14.74 28.77 15.69 28.06 16.4C27.36 17.1 26.41 17.5 25.41 17.5L17.08 17.5C16.75 17.5 16.43 17.36 16.19 17.13C15.96 16.89 15.83 16.58 15.83 16.25C15.83 15.91 15.96 15.6 16.19 15.36C16.43 15.13 16.75 15 17.08 15L25.41 15C25.74 15 26.06 14.86 26.3 14.63C26.53 14.39 26.66 14.08 26.66 13.75C26.66 13.41 26.53 13.1 26.3 12.86C26.06 12.63 25.74 12.5 25.41 12.5L17.08 12.5C16.75 12.5 16.43 12.36 16.19 12.13C15.96 11.89 15.83 11.58 15.83 11.25Z" fill="#262522" fill-opacity="1.000000" fill-rule="evenodd"/>
	<path id="Vector" d="M3.75 7.5C3.41 7.5 3.1 7.63 2.86 7.86C2.63 8.1 2.5 8.41 2.5 8.75C2.5 9.08 2.63 9.39 2.86 9.63C3.1 9.86 3.41 10 3.75 10L12.08 10C12.41 10 12.73 10.13 12.96 10.36C13.2 10.6 13.33 10.91 13.33 11.25C13.33 11.58 13.2 11.89 12.96 12.13C12.73 12.36 12.41 12.5 12.08 12.5L3.75 12.5C2.75 12.5 1.8 12.1 1.09 11.4C0.39 10.69 0 9.74 0 8.75C0 7.75 0.39 6.8 1.09 6.09C1.8 5.39 2.75 5 3.75 5L12.08 5C12.41 5 12.73 5.13 12.96 5.36C13.2 5.6 13.33 5.91 13.33 6.25C13.33 6.58 13.2 6.89 12.96 7.13C12.73 7.36 12.41 7.5 12.08 7.5L3.75 7.5ZM15.83 6.25C15.83 5.91 15.96 5.6 16.19 5.36C16.43 5.13 16.75 5 17.08 5L25.41 5C26.41 5 27.36 5.39 28.06 6.09C28.77 6.8 29.16 7.75 29.16 8.75C29.16 9.74 28.77 10.69 28.06 11.4C27.36 12.1 26.41 12.5 25.41 12.5L17.08 12.5C16.75 12.5 16.43 12.36 16.19 12.13C15.96 11.89 15.83 11.58 15.83 11.25C15.83 10.91 15.96 10.6 16.19 10.36C16.43 10.13 16.75 10 17.08 10L25.41 10C25.74 10 26.06 9.86 26.3 9.63C26.53 9.39 26.66 9.08 26.66 8.75C26.66 8.41 26.53 8.1 26.3 7.86C26.06 7.63 25.74 7.5 25.41 7.5L17.08 7.5C16.75 7.5 16.43 7.36 16.19 7.13C15.96 6.89 15.83 6.58 15.83 6.25Z" fill="#262522" fill-opacity="1.000000" fill-rule="evenodd"/>
	<path id="Vector" d="M6.66 3.75C6.66 2.75 7.06 1.8 7.76 1.09C8.46 0.39 9.42 0 10.41 0L18.74 0C19.74 0 20.69 0.39 21.4 1.09C22.1 1.8 22.49 2.75 22.49 3.75C22.49 4.74 22.1 5.69 21.4 6.4C20.69 7.1 19.74 7.5 18.74 7.5L18.33 7.5L18.33 15.41C18.33 16.41 17.93 17.36 17.23 18.06C16.53 18.77 15.57 19.16 14.58 19.16C13.58 19.16 12.63 18.77 11.93 18.06C11.22 17.36 10.83 16.41 10.83 15.41L10.83 7.5L10.41 7.5C9.42 7.5 8.46 7.1 7.76 6.4C7.06 5.69 6.66 4.74 6.66 3.75ZM10.41 2.5C10.08 2.5 9.76 2.63 9.53 2.86C9.29 3.1 9.16 3.41 9.16 3.75C9.16 4.08 9.29 4.39 9.53 4.63C9.76 4.86 10.08 5 10.41 5L12.08 5C12.41 5 12.73 5.13 12.96 5.36C13.2 5.6 13.33 5.91 13.33 6.25L13.33 15.41C13.33 15.74 13.46 16.06 13.69 16.3C13.93 16.53 14.25 16.66 14.58 16.66C14.91 16.66 15.23 16.53 15.46 16.3C15.7 16.06 15.83 15.74 15.83 15.41L15.83 6.25C15.83 5.91 15.96 5.6 16.19 5.36C16.43 5.13 16.75 5 17.08 5L18.74 5C19.08 5 19.39 4.86 19.63 4.63C19.86 4.39 19.99 4.08 19.99 3.75C19.99 3.41 19.86 3.1 19.63 2.86C19.39 2.63 19.08 2.5 18.74 2.5L10.41 2.5Z" fill="#262522" fill-opacity="1.000000" fill-rule="evenodd"/>
</svg>
