<svg width="39.166626" height="39.166626" viewBox="0 0 39.1666 39.1666" fill="none" xmlns="http://www.w3.org/2000/svg" xmlns:xlink="http://www.w3.org/1999/xlink">
	<desc>
			Created with Pixso.
	</desc>
	<defs/>
	<path id="Vector" d="M0 16.25C0 7.27 7.27 0 16.25 0L22.91 0C31.89 0 39.16 7.27 39.16 16.25C39.16 17.02 38.85 17.76 38.31 18.31C37.76 18.85 37.02 19.16 36.25 19.16L2.91 19.16C2.14 19.16 1.4 18.85 0.85 18.31C0.3 17.76 0 17.02 0 16.25ZM16.25 2.5C12.6 2.5 9.1 3.94 6.52 6.52C3.94 9.1 2.5 12.6 2.5 16.25C2.5 16.48 2.68 16.66 2.91 16.66L36.25 16.66C36.36 16.66 36.46 16.62 36.54 16.54C36.62 16.46 36.66 16.36 36.66 16.25C36.66 14.44 36.31 12.65 35.62 10.98C34.92 9.31 33.91 7.8 32.63 6.52C31.36 5.25 29.84 4.23 28.17 3.54C26.51 2.85 24.72 2.5 22.91 2.5L16.25 2.5ZM0 32.91C0 34.57 0.65 36.16 1.83 37.33C3 38.5 4.59 39.16 6.25 39.16L32.91 39.16C34.57 39.16 36.16 38.5 37.33 37.33C38.5 36.16 39.16 34.57 39.16 32.91L39.16 29.58C39.16 28.8 38.85 28.06 38.31 27.52C37.76 26.97 37.02 26.66 36.25 26.66L17.08 26.66C16.75 26.66 16.43 26.79 16.19 27.03C15.96 27.26 15.83 27.58 15.83 27.91C15.83 28.24 15.96 28.56 16.19 28.8C16.43 29.03 16.75 29.16 17.08 29.16L36.25 29.16C36.36 29.16 36.46 29.21 36.54 29.28C36.62 29.36 36.66 29.47 36.66 29.58L36.66 32.91C36.66 33.91 36.27 34.86 35.56 35.56C34.86 36.27 33.91 36.66 32.91 36.66L6.25 36.66C5.25 36.66 4.3 36.27 3.59 35.56C2.89 34.86 2.5 33.91 2.5 32.91L2.5 29.58C2.5 29.47 2.54 29.36 2.62 29.28C2.7 29.21 2.8 29.16 2.91 29.16L9.58 29.16C9.91 29.16 10.23 29.03 10.46 28.8C10.7 28.56 10.83 28.24 10.83 27.91C10.83 27.58 10.7 27.26 10.46 27.03C10.23 26.79 9.91 26.66 9.58 26.66L2.91 26.66C2.14 26.66 1.4 26.97 0.85 27.52C0.3 28.06 0 28.8 0 29.58L0 32.91Z" fill="#262522" fill-opacity="1.000000" fill-rule="evenodd"/>
	<path id="Vector" d="M0 20.41C0 19.42 0.39 18.46 1.09 17.76C1.8 17.06 2.75 16.66 3.75 16.66L35.41 16.66C36.41 16.66 37.36 17.06 38.06 17.76C38.77 18.46 39.16 19.42 39.16 20.41C39.16 21.41 38.77 22.36 38.06 23.06C37.36 23.77 36.41 24.16 35.41 24.16L3.75 24.16C2.75 24.16 1.8 23.77 1.09 23.06C0.39 22.36 0 21.41 0 20.41ZM3.75 19.16C3.41 19.16 3.1 19.29 2.86 19.53C2.63 19.76 2.5 20.08 2.5 20.41C2.5 20.74 2.63 21.06 2.86 21.3C3.1 21.53 3.41 21.66 3.75 21.66L35.41 21.66C35.74 21.66 36.06 21.53 36.3 21.3C36.53 21.06 36.66 20.74 36.66 20.41C36.66 20.08 36.53 19.76 36.3 19.53C36.06 19.29 35.74 19.16 35.41 19.16L3.75 19.16Z" fill="#262522" fill-opacity="1.000000" fill-rule="evenodd"/>
	<path id="Vector" d="M3.75 24.16C3.41 24.16 3.1 24.29 2.86 24.53C2.63 24.76 2.5 25.08 2.5 25.41C2.5 25.74 2.63 26.06 2.86 26.3C3.1 26.53 3.41 26.66 3.75 26.66L9.58 26.66C9.91 26.66 10.23 26.79 10.46 27.03C10.7 27.26 10.83 27.58 10.83 27.91L10.83 29.24C10.83 29.89 11.08 30.5 11.54 30.95C11.99 31.41 12.6 31.66 13.25 31.66C13.89 31.66 14.5 31.41 14.95 30.95C15.41 30.5 15.66 29.89 15.66 29.24L15.66 27.91C15.66 27.58 15.79 27.26 16.03 27.03C16.26 26.79 16.58 26.66 16.91 26.66L35.41 26.66C35.74 26.66 36.06 26.53 36.3 26.3C36.53 26.06 36.66 25.74 36.66 25.41C36.66 25.08 36.53 24.76 36.3 24.53C36.06 24.29 35.74 24.16 35.41 24.16L3.75 24.16ZM0 25.41C0 24.42 0.39 23.46 1.09 22.76C1.8 22.06 2.75 21.66 3.75 21.66L35.41 21.66C36.41 21.66 37.36 22.06 38.06 22.76C38.77 23.46 39.16 24.42 39.16 25.41C39.16 26.41 38.77 27.36 38.06 28.06C37.36 28.77 36.41 29.16 35.41 29.16L18.16 29.16L18.16 29.24C18.16 30.55 17.64 31.8 16.72 32.72C15.8 33.64 14.55 34.16 13.25 34.16C11.94 34.16 10.69 33.64 9.77 32.72C8.85 31.8 8.33 30.55 8.33 29.24L8.33 29.16L3.75 29.16C2.75 29.16 1.8 28.77 1.09 28.06C0.39 27.36 0 26.41 0 25.41ZM12.13 8.69C12.36 8.93 12.49 9.25 12.49 9.58C12.49 9.91 12.36 10.23 12.13 10.46L10.46 12.13C10.22 12.35 9.91 12.47 9.59 12.46C9.26 12.46 8.95 12.33 8.73 12.1C8.5 11.87 8.37 11.56 8.36 11.24C8.35 10.91 8.47 10.6 8.69 10.36L10.36 8.69C10.6 8.46 10.91 8.33 11.25 8.33C11.58 8.33 11.89 8.46 12.13 8.69ZM20.46 8.69C20.7 8.93 20.83 9.25 20.83 9.58C20.83 9.91 20.7 10.23 20.46 10.46L18.79 12.13C18.68 12.25 18.54 12.35 18.39 12.42C18.24 12.49 18.07 12.52 17.9 12.53C17.73 12.53 17.57 12.5 17.41 12.44C17.26 12.37 17.12 12.28 17 12.16C16.88 12.04 16.78 11.9 16.72 11.74C16.66 11.59 16.63 11.42 16.63 11.25C16.63 11.09 16.67 10.92 16.74 10.77C16.81 10.61 16.91 10.48 17.03 10.36L18.7 8.69C18.93 8.46 19.25 8.33 19.58 8.33C19.91 8.33 20.23 8.46 20.46 8.69ZM28.8 8.69C29.03 8.93 29.16 9.25 29.16 9.58C29.16 9.91 29.03 10.23 28.8 10.46L27.13 12.13C27.01 12.25 26.88 12.35 26.72 12.42C26.57 12.49 26.4 12.52 26.24 12.53C26.07 12.53 25.9 12.5 25.75 12.44C25.59 12.37 25.45 12.28 25.33 12.16C25.21 12.04 25.12 11.9 25.05 11.74C24.99 11.59 24.96 11.42 24.96 11.25C24.97 11.09 25 10.92 25.07 10.77C25.14 10.61 25.24 10.48 25.36 10.36L27.03 8.69C27.26 8.46 27.58 8.33 27.91 8.33C28.24 8.33 28.56 8.46 28.8 8.69Z" fill="#262522" fill-opacity="1.000000" fill-rule="evenodd"/>
</svg>
