<svg width="40.000000" height="35.000000" viewBox="0 0 40 35" fill="none" xmlns="http://www.w3.org/2000/svg" xmlns:xlink="http://www.w3.org/1999/xlink">
	<desc>
			Created with Pixso.
	</desc>
	<defs>
		<clipPath id="clip144_10">
			<rect id="Logo" rx="0.000000" width="39.000000" height="34.000000" transform="translate(0.500000 0.500000)" fill="white" fill-opacity="0"/>
		</clipPath>
	</defs>
	<rect id="Logo" rx="0.000000" width="39.000000" height="34.000000" transform="translate(0.500000 0.500000)" fill="#FFFFFF" fill-opacity="0"/>
	<g clip-path="url(#clip144_10)">
		<path id="Vector" d="M25 30C26.31 30 27.61 29.74 28.82 29.23C30.04 28.73 31.14 27.99 32.07 27.07C32.99 26.14 33.73 25.04 34.23 23.82C34.74 22.61 35 21.31 35 20C35 16.02 33.41 12.2 30.6 9.39C27.79 6.58 23.97 5 20 5C16.02 5 12.2 6.58 9.39 9.39C6.58 12.2 5 16.02 5 20C5 21.31 5.25 22.61 5.76 23.82C6.26 25.04 7 26.14 7.92 27.07C8.85 27.99 9.95 28.73 11.17 29.23C12.38 29.74 13.68 30 15 30L25 30ZM20 9C17.08 9 14.28 10.15 12.22 12.22C10.15 14.28 9 17.08 9 20C9 20.78 9.15 21.56 9.45 22.29C9.75 23.02 10.2 23.68 10.75 24.24C11.31 24.79 11.97 25.24 12.7 25.54C13.43 25.84 14.21 26 15 26L25 26C25.78 26 26.56 25.84 27.29 25.54C28.02 25.24 28.68 24.79 29.24 24.24C29.79 23.68 30.24 23.02 30.54 22.29C30.84 21.56 31 20.78 31 20C31 17.08 29.84 14.28 27.77 12.22C25.71 10.15 22.91 9 20 9Z" fill="#F29C33" fill-opacity="1.000000" fill-rule="evenodd"/>
		<path id="Vector" d="M13 35C11.29 35 9.6 34.61 8.02 33.85C6.44 33.1 5.01 31.99 3.8 30.6C2.6 29.21 1.64 27.56 0.98 25.74C0.33 23.92 0 21.96 0 20C0 14.69 2.1 9.6 5.85 5.85C9.6 2.1 14.69 0 20 0C25.3 0 30.39 2.1 34.14 5.85C37.89 9.6 40 14.69 40 20C40 21.96 39.66 23.92 39.01 25.74C38.35 27.56 37.39 29.21 36.19 30.6C34.98 31.99 33.55 33.1 31.97 33.85C30.39 34.61 28.7 35 27 35L13 35ZM8.68 8.68C11.68 5.68 15.75 4 20 4C24.24 4 28.31 5.68 31.31 8.68C34.31 11.68 36 15.75 36 20C36 21.51 35.74 23.01 35.24 24.38C34.75 25.76 34.03 26.98 33.16 27.98C32.3 28.98 31.3 29.74 30.25 30.24C29.19 30.75 28.09 31 27 31L13 31C11.9 31 10.8 30.75 9.75 30.24C8.69 29.74 7.69 28.98 6.83 27.98C5.96 26.98 5.24 25.76 4.75 24.38C4.25 23.01 4 21.51 4 20C4 15.75 5.68 11.68 8.68 8.68Z" fill="#EE6352" fill-opacity="1.000000" fill-rule="evenodd"/>
		<g opacity="0.400000">
			<path id="Vector" d="M25 25L19.99 25C19.65 24.99 19.32 24.96 19 24.89C18.36 24.77 17.76 24.51 17.22 24.15C16.39 23.6 15.75 22.82 15.38 21.91C15.25 21.61 15.16 21.31 15.1 21C14.96 20.35 14.96 19.67 15.09 19.02C15.28 18.05 15.76 17.16 16.46 16.46C17.16 15.76 18.05 15.28 19.02 15.09C19.05 15.09 19.08 15.08 19.11 15.07C19.4 15.02 19.7 15 20 15C20.65 15 21.3 15.12 21.91 15.38C22.82 15.75 23.6 16.39 24.15 17.22C24.7 18.04 25 19.01 25 20L21 20C21 19.8 20.94 19.6 20.83 19.44C20.72 19.28 20.56 19.15 20.38 19.07C20.2 19 19.99 18.98 19.8 19.01C19.61 19.05 19.43 19.15 19.29 19.29C19.15 19.43 19.05 19.61 19.01 19.8C18.98 19.99 19 20.2 19.07 20.38C19.15 20.56 19.28 20.72 19.44 20.83C19.6 20.94 19.8 21 20 21L25 21C25.13 21 25.26 20.97 25.38 20.92C25.5 20.87 25.61 20.8 25.7 20.7C25.8 20.61 25.87 20.5 25.92 20.38C25.97 20.26 26 20.13 26 20C26 18.4 25.36 16.88 24.24 15.75C23.11 14.63 21.59 14 20 14C19.82 14 19.65 14 19.48 14.02C19.06 14.05 18.65 14.13 18.25 14.25C17.86 14.37 17.48 14.53 17.12 14.73C16.71 14.95 16.32 15.23 15.97 15.55C15.89 15.61 15.82 15.68 15.75 15.75C15.26 16.24 14.86 16.81 14.57 17.43C14.42 17.74 14.3 18.06 14.21 18.39C14.11 18.77 14.04 19.16 14.01 19.55C14 19.7 14 19.85 14 20C14 20.78 14.15 21.56 14.45 22.29C14.91 23.39 15.67 24.32 16.66 24.98C16.67 24.99 16.67 24.99 16.68 25L15 25C14.34 25 13.69 24.87 13.08 24.61C12.48 24.36 11.92 23.99 11.46 23.53C11 23.07 10.63 22.52 10.38 21.91C10.12 21.3 10 20.65 10 20C10 17.34 11.05 14.8 12.92 12.92C14.8 11.05 17.34 10 20 10C22.65 10 25.19 11.05 27.07 12.92C28.94 14.8 30 17.34 30 20C30 20.65 29.87 21.3 29.61 21.91C29.36 22.52 28.99 23.07 28.53 23.53C28.07 23.99 27.52 24.36 26.91 24.61C26.3 24.87 25.65 25 25 25Z" fill="#F29C33" fill-opacity="1.000000" fill-rule="evenodd"/>
		</g>
	</g>
</svg>
