<svg width="35.833618" height="35.638123" viewBox="0 0 35.8336 35.6381" fill="none" xmlns="http://www.w3.org/2000/svg" xmlns:xlink="http://www.w3.org/1999/xlink">
	<desc>
			Created with Pixso.
	</desc>
	<defs/>
	<path id="Vector" d="M6.81 5.47C4.01 7.28 2.5 9.65 2.5 12.08C2.5 14.51 4.01 16.87 6.81 18.69C9.59 20.5 13.52 21.66 17.91 21.66C22.31 21.66 26.23 20.5 29.02 18.69C31.81 16.87 33.33 14.51 33.33 12.08C33.33 9.65 31.81 7.28 29.02 5.47C26.23 3.66 22.31 2.5 17.91 2.5C13.52 2.5 9.59 3.66 6.81 5.47ZM5.45 3.37C8.69 1.26 13.1 0 17.91 0C22.72 0 27.13 1.26 30.38 3.37C33.61 5.47 35.83 8.52 35.83 12.08C35.83 15.63 33.61 18.69 30.38 20.79C27.13 22.9 22.72 24.16 17.91 24.16C13.1 24.16 8.69 22.9 5.45 20.79C2.21 18.69 0 15.63 0 12.08C0 8.53 2.21 5.47 5.45 3.37Z" fill="#262522" fill-opacity="1.000000" fill-rule="evenodd"/>
	<path id="Vector" d="M1.15 10.63C1.48 10.6 1.81 10.71 2.06 10.92C2.31 11.14 2.47 11.45 2.49 11.78L3.05 19.32C3.33 23.07 5.01 26.58 7.77 29.15C10.52 31.71 14.15 33.13 17.91 33.13C21.68 33.13 25.3 31.71 28.06 29.15C30.81 26.58 32.5 23.07 32.77 19.32L33.33 11.78C33.36 11.45 33.51 11.14 33.76 10.92C34.01 10.71 34.34 10.6 34.67 10.62C35 10.65 35.31 10.8 35.52 11.05C35.74 11.3 35.85 11.63 35.83 11.96L35.27 19.51C34.95 23.89 32.98 27.99 29.76 30.98C26.54 33.97 22.31 35.63 17.91 35.63C13.52 35.63 9.28 33.97 6.07 30.98C2.85 27.99 0.88 23.89 0.56 19.51L0 11.96C-0.01 11.8 0.01 11.64 0.06 11.48C0.11 11.32 0.19 11.18 0.3 11.06C0.41 10.93 0.54 10.83 0.68 10.76C0.83 10.68 0.99 10.64 1.15 10.63Z" fill="#262522" fill-opacity="1.000000" fill-rule="evenodd"/>
	<path id="Vector" d="M9.58 7.39C9.25 7.39 8.93 7.52 8.69 7.76C8.46 7.99 8.33 8.31 8.33 8.64C8.33 8.97 8.46 9.29 8.69 9.53C8.93 9.76 9.25 9.89 9.58 9.89C9.91 9.89 10.23 9.76 10.46 9.53C10.7 9.29 10.83 8.97 10.83 8.64C10.83 8.31 10.7 7.99 10.46 7.76C10.23 7.52 9.91 7.39 9.58 7.39ZM5.83 8.64C5.83 8.15 5.93 7.66 6.11 7.21C6.3 6.75 6.58 6.34 6.93 5.99C7.27 5.64 7.69 5.37 8.14 5.18C8.6 4.99 9.09 4.89 9.58 4.89C10.07 4.89 10.56 4.99 11.01 5.18C11.47 5.37 11.88 5.64 12.23 5.99C12.58 6.34 12.85 6.75 13.04 7.21C13.23 7.66 13.33 8.15 13.33 8.64C13.33 9.64 12.93 10.59 12.23 11.29C11.53 12 10.57 12.39 9.58 12.39C8.58 12.39 7.63 12 6.93 11.29C6.22 10.59 5.83 9.64 5.83 8.64ZM28.75 10.73C28.41 10.73 28.1 10.86 27.86 11.09C27.63 11.33 27.5 11.64 27.5 11.98C27.5 12.31 27.63 12.62 27.86 12.86C28.1 13.09 28.41 13.23 28.75 13.23C29.08 13.23 29.39 13.09 29.63 12.86C29.86 12.62 30 12.31 30 11.98C30 11.64 29.86 11.33 29.63 11.09C29.39 10.86 29.08 10.73 28.75 10.73ZM25 11.98C25 10.98 25.39 10.03 26.09 9.32C26.8 8.62 27.75 8.23 28.75 8.23C29.74 8.23 30.69 8.62 31.4 9.32C32.1 10.03 32.5 10.98 32.5 11.98C32.5 12.97 32.1 13.92 31.4 14.63C30.69 15.33 29.74 15.73 28.75 15.73C27.75 15.73 26.8 15.33 26.09 14.63C25.39 13.92 25 12.97 25 11.98ZM21.19 5.97C20.65 6.15 20 6.57 19.44 7.26C18.89 7.94 18.6 8.66 18.53 9.23C18.46 9.81 18.63 10.05 18.72 10.12C18.81 10.2 19.08 10.32 19.63 10.13C20.18 9.95 20.82 9.52 21.38 8.84C21.94 8.16 22.23 7.43 22.3 6.87C22.36 6.28 22.19 6.05 22.1 5.97C22.01 5.9 21.75 5.78 21.19 5.97ZM20.4 3.59C21.45 3.25 22.7 3.24 23.68 4.04C24.66 4.84 24.91 6.07 24.78 7.16C24.65 8.27 24.13 9.42 23.32 10.42C22.51 11.41 21.48 12.15 20.42 12.5C19.38 12.85 18.12 12.86 17.14 12.06C16.16 11.26 15.92 10.03 16.04 8.94C16.18 7.83 16.69 6.68 17.51 5.68C18.32 4.68 19.35 3.94 20.4 3.59ZM13.7 11.56C13.91 11.56 14.11 11.61 14.29 11.71C14.47 11.8 14.63 11.94 14.74 12.12L18.07 17.12C18.2 17.3 18.27 17.52 18.28 17.75C18.29 17.97 18.24 18.2 18.14 18.4C18.03 18.6 17.87 18.76 17.68 18.88C17.48 19 17.26 19.06 17.03 19.06L10.37 19.06C10.14 19.06 9.92 19 9.72 18.88C9.53 18.76 9.37 18.6 9.26 18.4C9.16 18.2 9.11 17.97 9.12 17.75C9.13 17.52 9.2 17.3 9.33 17.12L12.66 12.12C12.77 11.94 12.93 11.8 13.11 11.71C13.29 11.61 13.49 11.56 13.7 11.56ZM12.7 16.56L14.7 16.56L13.7 15.06L12.7 16.56ZM21.2 14.89C21.53 14.89 21.85 15.02 22.08 15.26C22.32 15.49 22.45 15.81 22.45 16.14L22.45 19.48C22.45 19.81 22.32 20.12 22.08 20.36C21.85 20.59 21.53 20.73 21.2 20.73C20.87 20.73 20.55 20.59 20.32 20.36C20.08 20.12 19.95 19.81 19.95 19.48L19.95 16.14C19.95 15.81 20.08 15.49 20.32 15.26C20.55 15.02 20.87 14.89 21.2 14.89ZM24.53 14.06C24.86 14.06 25.18 14.19 25.42 14.42C25.65 14.66 25.78 14.98 25.78 15.31L25.78 18.64C25.78 18.97 25.65 19.29 25.42 19.53C25.18 19.76 24.86 19.89 24.53 19.89C24.2 19.89 23.88 19.76 23.65 19.53C23.42 19.29 23.28 18.97 23.28 18.64L23.28 15.31C23.28 14.98 23.42 14.66 23.65 14.42C23.88 14.19 24.2 14.06 24.53 14.06ZM4.48 12.76C4.6 12.64 4.74 12.55 4.89 12.49C5.04 12.42 5.2 12.39 5.37 12.39C5.53 12.39 5.69 12.42 5.84 12.49C6 12.55 6.13 12.64 6.25 12.76L8.75 15.26C8.87 15.37 8.97 15.51 9.04 15.66C9.11 15.82 9.14 15.98 9.15 16.15C9.15 16.32 9.12 16.49 9.06 16.64C8.99 16.8 8.9 16.94 8.78 17.06C8.66 17.18 8.52 17.27 8.37 17.33C8.21 17.39 8.04 17.43 7.88 17.42C7.71 17.42 7.54 17.38 7.39 17.31C7.24 17.25 7.1 17.15 6.98 17.03L4.48 14.53C4.25 14.29 4.12 13.97 4.12 13.64C4.12 13.31 4.25 12.99 4.48 12.76L4.48 12.76Z" fill="#262522" fill-opacity="1.000000" fill-rule="evenodd"/>
</svg>
